<svg xmlns="http://www.w3.org/2000/svg" xmlns:xlink="http://www.w3.org/1999/xlink" width="500" zoomAndPan="magnify" viewBox="0 0 375 149.999998" height="200" preserveAspectRatio="xMidYMid meet" version="1.0"><defs><g/></defs><g fill="#461b6a" fill-opacity="1"><g transform="translate(135.342036, 70.349969)"><g><path d="M 11.765625 0 L 10.375 -3.65625 L 4.21875 -3.65625 L 2.828125 0 L 0.53125 0 L 6.21875 -14.703125 L 8.53125 -14.703125 L 14.171875 0 Z M 6.171875 -8.78125 L 5.0625 -5.84375 L 9.5625 -5.84375 L 8.40625 -8.859375 C 8.21875 -9.347656 8.03125 -9.875 7.84375 -10.4375 C 7.664062 -11.007812 7.488281 -11.582031 7.3125 -12.15625 C 7.113281 -11.570312 6.921875 -10.984375 6.734375 -10.390625 C 6.546875 -9.804688 6.359375 -9.269531 6.171875 -8.78125 Z M 6.171875 -8.78125 "/></g></g></g><g fill="#461b6a" fill-opacity="1"><g transform="translate(149.823903, 70.349969)"><g><path d="M 9.03125 -4.390625 L 9.03125 -11.03125 L 11.1875 -11.03125 L 11.1875 0 L 9.03125 0 L 9.03125 -1.765625 C 8.707031 -1.242188 8.234375 -0.785156 7.609375 -0.390625 C 6.984375 0.00390625 6.238281 0.203125 5.375 0.203125 C 4.226562 0.203125 3.296875 -0.1875 2.578125 -0.96875 C 1.867188 -1.75 1.515625 -2.832031 1.515625 -4.21875 L 1.515625 -11.03125 L 3.671875 -11.03125 L 3.671875 -4.8125 C 3.671875 -4.25 3.757812 -3.726562 3.9375 -3.25 C 4.113281 -2.78125 4.394531 -2.398438 4.78125 -2.109375 C 5.164062 -1.828125 5.660156 -1.6875 6.265625 -1.6875 C 7.015625 -1.6875 7.660156 -1.921875 8.203125 -2.390625 C 8.753906 -2.867188 9.03125 -3.535156 9.03125 -4.390625 Z M 9.03125 -4.390625 "/></g></g></g><g fill="#461b6a" fill-opacity="1"><g transform="translate(162.52182, 70.349969)"><g><path d="M 5.046875 0 L 2.875 0 L 2.875 -8.921875 L 0.59375 -8.921875 L 0.59375 -11.03125 L 2.875 -11.03125 L 2.875 -13.84375 L 5.046875 -13.84375 L 5.046875 -11.03125 L 7.609375 -11.03125 L 7.609375 -8.921875 L 5.046875 -8.921875 Z M 5.046875 0 "/></g></g></g><g fill="#461b6a" fill-opacity="1"><g transform="translate(170.476356, 70.349969)"><g><path d="M 12.078125 -5.515625 C 12.078125 -4.398438 11.828125 -3.410156 11.328125 -2.546875 C 10.828125 -1.691406 10.15625 -1.019531 9.3125 -0.53125 C 8.46875 -0.0390625 7.519531 0.203125 6.46875 0.203125 C 5.414062 0.203125 4.460938 -0.0390625 3.609375 -0.53125 C 2.753906 -1.019531 2.078125 -1.691406 1.578125 -2.546875 C 1.085938 -3.410156 0.84375 -4.398438 0.84375 -5.515625 C 0.84375 -6.640625 1.085938 -7.628906 1.578125 -8.484375 C 2.078125 -9.347656 2.753906 -10.023438 3.609375 -10.515625 C 4.460938 -11.003906 5.414062 -11.25 6.46875 -11.25 C 7.519531 -11.25 8.46875 -11.003906 9.3125 -10.515625 C 10.15625 -10.023438 10.828125 -9.347656 11.328125 -8.484375 C 11.828125 -7.628906 12.078125 -6.640625 12.078125 -5.515625 Z M 9.875 -5.515625 C 9.882812 -6.265625 9.738281 -6.921875 9.4375 -7.484375 C 9.132812 -8.054688 8.722656 -8.5 8.203125 -8.8125 C 7.691406 -9.125 7.113281 -9.28125 6.46875 -9.28125 C 5.820312 -9.28125 5.234375 -9.125 4.703125 -8.8125 C 4.179688 -8.5 3.769531 -8.054688 3.46875 -7.484375 C 3.175781 -6.921875 3.035156 -6.265625 3.046875 -5.515625 C 3.035156 -4.796875 3.175781 -4.148438 3.46875 -3.578125 C 3.769531 -3.015625 4.179688 -2.570312 4.703125 -2.25 C 5.234375 -1.925781 5.820312 -1.765625 6.46875 -1.765625 C 7.113281 -1.765625 7.691406 -1.925781 8.203125 -2.25 C 8.722656 -2.570312 9.132812 -3.015625 9.4375 -3.578125 C 9.738281 -4.148438 9.882812 -4.796875 9.875 -5.515625 Z M 9.875 -5.515625 "/></g></g></g><g fill="#461b6a" fill-opacity="1"><g transform="translate(183.384146, 70.349969)"><g><path d="M 1.515625 0 L 1.515625 -15.546875 L 3.671875 -15.546875 L 3.671875 0 Z M 1.515625 0 "/></g></g></g><g fill="#461b6a" fill-opacity="1"><g transform="translate(188.316332, 70.349969)"><g><path d="M 3.359375 4.828125 L 5.171875 0.6875 L 5.234375 0.546875 L 0.109375 -11.03125 L 2.625 -11.03125 L 6.0625 -2.921875 C 6.101562 -2.835938 6.144531 -2.734375 6.1875 -2.609375 C 6.238281 -2.484375 6.289062 -2.34375 6.34375 -2.1875 C 6.394531 -2.34375 6.445312 -2.492188 6.5 -2.640625 C 6.550781 -2.785156 6.601562 -2.925781 6.65625 -3.0625 L 9.53125 -11.03125 L 12.09375 -11.03125 L 7.5625 0 L 5.6875 4.828125 Z M 3.359375 4.828125 "/></g></g></g><g fill="#461b6a" fill-opacity="1"><g transform="translate(200.510526, 70.349969)"><g><path d="M 5.046875 0 L 2.875 0 L 2.875 -8.921875 L 0.59375 -8.921875 L 0.59375 -11.03125 L 2.875 -11.03125 L 2.875 -13.84375 L 5.046875 -13.84375 L 5.046875 -11.03125 L 7.609375 -11.03125 L 7.609375 -8.921875 L 5.046875 -8.921875 Z M 5.046875 0 "/></g></g></g><g fill="#461b6a" fill-opacity="1"><g transform="translate(208.570028, 70.349969)"><g><path d="M 2.953125 -13.421875 C 2.460938 -13.421875 2.097656 -13.546875 1.859375 -13.796875 C 1.628906 -14.046875 1.515625 -14.375 1.515625 -14.78125 C 1.515625 -15.132812 1.628906 -15.453125 1.859375 -15.734375 C 2.097656 -16.015625 2.460938 -16.15625 2.953125 -16.15625 C 3.453125 -16.15625 3.816406 -16.023438 4.046875 -15.765625 C 4.285156 -15.515625 4.40625 -15.1875 4.40625 -14.78125 C 4.40625 -14.4375 4.285156 -14.125 4.046875 -13.84375 C 3.816406 -13.5625 3.453125 -13.421875 2.953125 -13.421875 Z M 4.078125 0 L 1.921875 0 L 1.921875 -11.03125 L 4.078125 -11.03125 Z M 4.078125 0 "/></g></g></g><g fill="#461b6a" fill-opacity="1"><g transform="translate(214.404775, 70.349969)"><g><path d="M 2.890625 -5.515625 C 2.890625 -4.796875 3.054688 -4.148438 3.390625 -3.578125 C 3.722656 -3.015625 4.15625 -2.566406 4.6875 -2.234375 C 5.226562 -1.910156 5.804688 -1.75 6.421875 -1.75 C 7.117188 -1.75 7.726562 -1.925781 8.25 -2.28125 C 8.769531 -2.644531 9.191406 -3.023438 9.515625 -3.421875 L 10.703125 -1.953125 C 10.441406 -1.578125 10.078125 -1.222656 9.609375 -0.890625 C 9.148438 -0.566406 8.625 -0.300781 8.03125 -0.09375 C 7.445312 0.101562 6.832031 0.203125 6.1875 0.203125 C 5.1875 0.203125 4.28125 -0.046875 3.46875 -0.546875 C 2.65625 -1.046875 2.015625 -1.726562 1.546875 -2.59375 C 1.078125 -3.46875 0.84375 -4.441406 0.84375 -5.515625 C 0.84375 -6.609375 1.078125 -7.585938 1.546875 -8.453125 C 2.015625 -9.316406 2.65625 -10 3.46875 -10.5 C 4.28125 -11 5.1875 -11.25 6.1875 -11.25 C 7.21875 -11.25 8.128906 -11.039062 8.921875 -10.625 C 9.722656 -10.21875 10.316406 -9.6875 10.703125 -9.03125 L 9.515625 -7.5625 C 9.191406 -8.039062 8.734375 -8.445312 8.140625 -8.78125 C 7.546875 -9.125 6.96875 -9.296875 6.40625 -9.296875 C 5.75 -9.296875 5.15625 -9.128906 4.625 -8.796875 C 4.09375 -8.472656 3.671875 -8.023438 3.359375 -7.453125 C 3.046875 -6.890625 2.890625 -6.242188 2.890625 -5.515625 Z M 2.890625 -5.515625 "/></g></g></g><g fill="#461b6a" fill-opacity="1"><g transform="translate(225.633511, 70.349969)"><g><path d="M 7.875 -8.125 C 7.476562 -8.519531 7.03125 -8.84375 6.53125 -9.09375 C 6.039062 -9.34375 5.585938 -9.46875 5.171875 -9.46875 C 4.867188 -9.46875 4.570312 -9.429688 4.28125 -9.359375 C 4 -9.296875 3.757812 -9.164062 3.5625 -8.96875 C 3.375 -8.78125 3.28125 -8.503906 3.28125 -8.140625 C 3.289062 -7.640625 3.515625 -7.285156 3.953125 -7.078125 C 4.398438 -6.867188 4.953125 -6.679688 5.609375 -6.515625 C 6.179688 -6.359375 6.738281 -6.164062 7.28125 -5.9375 C 7.832031 -5.707031 8.285156 -5.367188 8.640625 -4.921875 C 8.992188 -4.484375 9.171875 -3.863281 9.171875 -3.0625 C 9.171875 -2.375 8.976562 -1.785156 8.59375 -1.296875 C 8.207031 -0.804688 7.707031 -0.429688 7.09375 -0.171875 C 6.488281 0.078125 5.851562 0.203125 5.1875 0.203125 C 4.382812 0.203125 3.59375 0.0625 2.8125 -0.21875 C 2.039062 -0.507812 1.382812 -1.003906 0.84375 -1.703125 L 2.3125 -2.96875 C 2.6875 -2.53125 3.113281 -2.1875 3.59375 -1.9375 C 4.082031 -1.695312 4.675781 -1.578125 5.375 -1.578125 C 5.644531 -1.578125 5.910156 -1.617188 6.171875 -1.703125 C 6.441406 -1.796875 6.671875 -1.941406 6.859375 -2.140625 C 7.046875 -2.347656 7.140625 -2.628906 7.140625 -2.984375 C 7.140625 -3.316406 7.035156 -3.578125 6.828125 -3.765625 C 6.628906 -3.953125 6.359375 -4.101562 6.015625 -4.21875 C 5.679688 -4.34375 5.3125 -4.457031 4.90625 -4.5625 C 4.3125 -4.726562 3.722656 -4.929688 3.140625 -5.171875 C 2.554688 -5.421875 2.070312 -5.769531 1.6875 -6.21875 C 1.300781 -6.675781 1.109375 -7.296875 1.109375 -8.078125 C 1.109375 -8.742188 1.289062 -9.3125 1.65625 -9.78125 C 2.03125 -10.25 2.519531 -10.609375 3.125 -10.859375 C 3.726562 -11.117188 4.375 -11.25 5.0625 -11.25 C 5.71875 -11.25 6.429688 -11.109375 7.203125 -10.828125 C 7.972656 -10.554688 8.609375 -10.109375 9.109375 -9.484375 Z M 7.875 -8.125 "/></g></g></g><g fill="#461b6a" fill-opacity="1"><g transform="translate(95.240484, 91.672636)"><g><path d="M 8.953125 0 L 7.90625 -2.78125 L 3.21875 -2.78125 L 2.15625 0 L 0.40625 0 L 4.734375 -11.203125 L 6.5 -11.203125 L 10.796875 0 Z M 4.703125 -6.6875 L 3.859375 -4.453125 L 7.28125 -4.453125 L 6.40625 -6.75 C 6.257812 -7.125 6.117188 -7.523438 5.984375 -7.953125 C 5.847656 -8.390625 5.707031 -8.828125 5.5625 -9.265625 C 5.414062 -8.816406 5.269531 -8.367188 5.125 -7.921875 C 4.976562 -7.472656 4.835938 -7.0625 4.703125 -6.6875 Z M 4.703125 -6.6875 "/></g></g></g><g fill="#461b6a" fill-opacity="1"><g transform="translate(106.277818, 91.672636)"><g><path d="M 6.875 -3.34375 L 6.875 -8.40625 L 8.53125 -8.40625 L 8.53125 0 L 6.875 0 L 6.875 -1.34375 C 6.632812 -0.945312 6.273438 -0.597656 5.796875 -0.296875 C 5.328125 0.00390625 4.757812 0.15625 4.09375 0.15625 C 3.21875 0.15625 2.507812 -0.140625 1.96875 -0.734375 C 1.425781 -1.328125 1.15625 -2.15625 1.15625 -3.21875 L 1.15625 -8.40625 L 2.796875 -8.40625 L 2.796875 -3.65625 C 2.796875 -3.238281 2.863281 -2.847656 3 -2.484375 C 3.132812 -2.117188 3.347656 -1.828125 3.640625 -1.609375 C 3.929688 -1.390625 4.304688 -1.28125 4.765625 -1.28125 C 5.335938 -1.28125 5.832031 -1.460938 6.25 -1.828125 C 6.664062 -2.191406 6.875 -2.695312 6.875 -3.34375 Z M 6.875 -3.34375 "/></g></g></g><g fill="#461b6a" fill-opacity="1"><g transform="translate(115.955491, 91.672636)"><g><path d="M 3.84375 0 L 2.1875 0 L 2.1875 -6.796875 L 0.453125 -6.796875 L 0.453125 -8.40625 L 2.1875 -8.40625 L 2.1875 -10.546875 L 3.84375 -10.546875 L 3.84375 -8.40625 L 5.796875 -8.40625 L 5.796875 -6.796875 L 3.84375 -6.796875 Z M 3.84375 0 "/></g></g></g><g fill="#461b6a" fill-opacity="1"><g transform="translate(122.018032, 91.672636)"><g><path d="M 9.203125 -4.203125 C 9.203125 -3.347656 9.007812 -2.59375 8.625 -1.9375 C 8.25 -1.28125 7.738281 -0.765625 7.09375 -0.390625 C 6.445312 -0.0234375 5.722656 0.15625 4.921875 0.15625 C 4.128906 0.15625 3.40625 -0.0234375 2.75 -0.390625 C 2.101562 -0.765625 1.585938 -1.28125 1.203125 -1.9375 C 0.828125 -2.59375 0.640625 -3.347656 0.640625 -4.203125 C 0.640625 -5.054688 0.828125 -5.8125 1.203125 -6.46875 C 1.585938 -7.125 2.101562 -7.640625 2.75 -8.015625 C 3.40625 -8.390625 4.128906 -8.578125 4.921875 -8.578125 C 5.722656 -8.578125 6.445312 -8.390625 7.09375 -8.015625 C 7.738281 -7.640625 8.25 -7.125 8.625 -6.46875 C 9.007812 -5.8125 9.203125 -5.054688 9.203125 -4.203125 Z M 7.515625 -4.203125 C 7.523438 -4.773438 7.414062 -5.273438 7.1875 -5.703125 C 6.957031 -6.140625 6.644531 -6.476562 6.25 -6.71875 C 5.851562 -6.957031 5.410156 -7.078125 4.921875 -7.078125 C 4.429688 -7.078125 3.984375 -6.957031 3.578125 -6.71875 C 3.179688 -6.476562 2.867188 -6.140625 2.640625 -5.703125 C 2.410156 -5.273438 2.300781 -4.773438 2.3125 -4.203125 C 2.300781 -3.648438 2.410156 -3.15625 2.640625 -2.71875 C 2.867188 -2.289062 3.179688 -1.953125 3.578125 -1.703125 C 3.984375 -1.460938 4.429688 -1.34375 4.921875 -1.34375 C 5.410156 -1.34375 5.851562 -1.460938 6.25 -1.703125 C 6.644531 -1.953125 6.957031 -2.289062 7.1875 -2.71875 C 7.414062 -3.15625 7.523438 -3.648438 7.515625 -4.203125 Z M 7.515625 -4.203125 "/></g></g></g><g fill="#461b6a" fill-opacity="1"><g transform="translate(131.85567, 91.672636)"><g><path d="M 5.421875 -8.546875 C 6.117188 -8.546875 6.675781 -8.382812 7.09375 -8.0625 C 7.507812 -7.75 7.804688 -7.320312 7.984375 -6.78125 C 8.128906 -7.050781 8.347656 -7.320312 8.640625 -7.59375 C 8.929688 -7.863281 9.265625 -8.085938 9.640625 -8.265625 C 10.023438 -8.453125 10.4375 -8.546875 10.875 -8.546875 C 11.601562 -8.546875 12.171875 -8.382812 12.578125 -8.0625 C 12.984375 -7.75 13.269531 -7.328125 13.4375 -6.796875 C 13.601562 -6.273438 13.6875 -5.691406 13.6875 -5.046875 L 13.6875 0 L 12.015625 0 L 12.015625 -4.9375 C 12.015625 -5.5625 11.894531 -6.066406 11.65625 -6.453125 C 11.425781 -6.835938 10.988281 -7.03125 10.34375 -7.03125 C 9.71875 -7.03125 9.203125 -6.832031 8.796875 -6.4375 C 8.398438 -6.050781 8.203125 -5.582031 8.203125 -5.03125 L 8.203125 0 L 6.546875 0 L 6.546875 -4.96875 C 6.546875 -5.570312 6.414062 -6.066406 6.15625 -6.453125 C 5.90625 -6.835938 5.484375 -7.03125 4.890625 -7.03125 C 4.484375 -7.03125 4.117188 -6.9375 3.796875 -6.75 C 3.484375 -6.570312 3.234375 -6.332031 3.046875 -6.03125 C 2.867188 -5.738281 2.78125 -5.414062 2.78125 -5.0625 L 2.78125 0 L 1.125 0 L 1.125 -8.40625 L 2.78125 -8.40625 L 2.78125 -7.0625 C 3.039062 -7.4375 3.398438 -7.773438 3.859375 -8.078125 C 4.328125 -8.390625 4.847656 -8.546875 5.421875 -8.546875 Z M 5.421875 -8.546875 "/></g></g></g><g fill="#461b6a" fill-opacity="1"><g transform="translate(146.58813, 91.672636)"><g><path d="M 8.96875 -8.40625 L 8.96875 0 L 7.3125 0 L 7.3125 -1.296875 C 7.050781 -0.941406 6.671875 -0.609375 6.171875 -0.296875 C 5.671875 0.00390625 5.09375 0.15625 4.4375 0.15625 C 3.726562 0.15625 3.082031 -0.0234375 2.5 -0.390625 C 1.914062 -0.765625 1.453125 -1.28125 1.109375 -1.9375 C 0.773438 -2.601562 0.609375 -3.363281 0.609375 -4.21875 C 0.609375 -5.070312 0.78125 -5.828125 1.125 -6.484375 C 1.476562 -7.140625 1.960938 -7.648438 2.578125 -8.015625 C 3.203125 -8.390625 3.910156 -8.578125 4.703125 -8.578125 C 5.285156 -8.578125 5.796875 -8.445312 6.234375 -8.1875 C 6.679688 -7.9375 7.039062 -7.640625 7.3125 -7.296875 L 7.3125 -8.40625 Z M 4.8125 -1.359375 C 5.320312 -1.359375 5.769531 -1.484375 6.15625 -1.734375 C 6.539062 -1.984375 6.835938 -2.320312 7.046875 -2.75 C 7.265625 -3.1875 7.375 -3.675781 7.375 -4.21875 C 7.375 -4.757812 7.265625 -5.238281 7.046875 -5.65625 C 6.835938 -6.082031 6.539062 -6.421875 6.15625 -6.671875 C 5.769531 -6.929688 5.320312 -7.0625 4.8125 -7.0625 C 4.320312 -7.0625 3.882812 -6.9375 3.5 -6.6875 C 3.113281 -6.4375 2.8125 -6.097656 2.59375 -5.671875 C 2.382812 -5.253906 2.28125 -4.769531 2.28125 -4.21875 C 2.28125 -3.675781 2.382812 -3.1875 2.59375 -2.75 C 2.8125 -2.320312 3.113281 -1.984375 3.5 -1.734375 C 3.882812 -1.484375 4.320312 -1.359375 4.8125 -1.359375 Z M 4.8125 -1.359375 "/></g></g></g><g fill="#461b6a" fill-opacity="1"><g transform="translate(156.713701, 91.672636)"><g><path d="M 3.84375 0 L 2.1875 0 L 2.1875 -6.796875 L 0.453125 -6.796875 L 0.453125 -8.40625 L 2.1875 -8.40625 L 2.1875 -10.546875 L 3.84375 -10.546875 L 3.84375 -8.40625 L 5.796875 -8.40625 L 5.796875 -6.796875 L 3.84375 -6.796875 Z M 3.84375 0 "/></g></g></g><g fill="#461b6a" fill-opacity="1"><g transform="translate(162.856226, 91.672636)"><g><path d="M 2.265625 -10.21875 C 1.890625 -10.21875 1.609375 -10.3125 1.421875 -10.5 C 1.242188 -10.695312 1.15625 -10.953125 1.15625 -11.265625 C 1.15625 -11.523438 1.242188 -11.757812 1.421875 -11.96875 C 1.609375 -12.1875 1.890625 -12.296875 2.265625 -12.296875 C 2.628906 -12.296875 2.898438 -12.195312 3.078125 -12 C 3.265625 -11.8125 3.359375 -11.566406 3.359375 -11.265625 C 3.359375 -10.992188 3.265625 -10.75 3.078125 -10.53125 C 2.898438 -10.320312 2.628906 -10.21875 2.265625 -10.21875 Z M 3.09375 0 L 1.453125 0 L 1.453125 -8.40625 L 3.09375 -8.40625 Z M 3.09375 0 "/></g></g></g><g fill="#461b6a" fill-opacity="1"><g transform="translate(167.303159, 91.672636)"><g><path d="M 9.203125 -4.203125 C 9.203125 -3.347656 9.007812 -2.59375 8.625 -1.9375 C 8.25 -1.28125 7.738281 -0.765625 7.09375 -0.390625 C 6.445312 -0.0234375 5.722656 0.15625 4.921875 0.15625 C 4.128906 0.15625 3.40625 -0.0234375 2.75 -0.390625 C 2.101562 -0.765625 1.585938 -1.28125 1.203125 -1.9375 C 0.828125 -2.59375 0.640625 -3.347656 0.640625 -4.203125 C 0.640625 -5.054688 0.828125 -5.8125 1.203125 -6.46875 C 1.585938 -7.125 2.101562 -7.640625 2.75 -8.015625 C 3.40625 -8.390625 4.128906 -8.578125 4.921875 -8.578125 C 5.722656 -8.578125 6.445312 -8.390625 7.09375 -8.015625 C 7.738281 -7.640625 8.25 -7.125 8.625 -6.46875 C 9.007812 -5.8125 9.203125 -5.054688 9.203125 -4.203125 Z M 7.515625 -4.203125 C 7.523438 -4.773438 7.414062 -5.273438 7.1875 -5.703125 C 6.957031 -6.140625 6.644531 -6.476562 6.25 -6.71875 C 5.851562 -6.957031 5.410156 -7.078125 4.921875 -7.078125 C 4.429688 -7.078125 3.984375 -6.957031 3.578125 -6.71875 C 3.179688 -6.476562 2.867188 -6.140625 2.640625 -5.703125 C 2.410156 -5.273438 2.300781 -4.773438 2.3125 -4.203125 C 2.300781 -3.648438 2.410156 -3.15625 2.640625 -2.71875 C 2.867188 -2.289062 3.179688 -1.953125 3.578125 -1.703125 C 3.984375 -1.460938 4.429688 -1.34375 4.921875 -1.34375 C 5.410156 -1.34375 5.851562 -1.460938 6.25 -1.703125 C 6.644531 -1.953125 6.957031 -2.289062 7.1875 -2.71875 C 7.414062 -3.15625 7.523438 -3.648438 7.515625 -4.203125 Z M 7.515625 -4.203125 "/></g></g></g><g fill="#461b6a" fill-opacity="1"><g transform="translate(177.140797, 91.672636)"><g><path d="M 5.546875 -8.578125 C 6.304688 -8.578125 6.894531 -8.421875 7.3125 -8.109375 C 7.726562 -7.796875 8.019531 -7.378906 8.1875 -6.859375 C 8.351562 -6.335938 8.4375 -5.757812 8.4375 -5.125 L 8.4375 0 L 6.78125 0 L 6.78125 -5.015625 C 6.78125 -5.410156 6.726562 -5.769531 6.625 -6.09375 C 6.519531 -6.414062 6.335938 -6.664062 6.078125 -6.84375 C 5.828125 -7.03125 5.472656 -7.109375 5.015625 -7.078125 C 4.585938 -7.078125 4.207031 -6.984375 3.875 -6.796875 C 3.539062 -6.617188 3.273438 -6.378906 3.078125 -6.078125 C 2.890625 -5.773438 2.796875 -5.445312 2.796875 -5.09375 L 2.796875 0 L 1.15625 0 L 1.15625 -8.40625 L 2.796875 -8.40625 L 2.796875 -7.078125 C 3.054688 -7.460938 3.429688 -7.804688 3.921875 -8.109375 C 4.410156 -8.421875 4.953125 -8.578125 5.546875 -8.578125 Z M 5.546875 -8.578125 "/></g></g></g><g fill="#461b6a" fill-opacity="1"><g transform="translate(186.658516, 91.672636)"><g/></g></g><g fill="#461b6a" fill-opacity="1"><g transform="translate(191.137436, 91.672636)"><g><path d="M 0.71875 -3.765625 L 0.71875 -5.203125 L 3.875 -5.203125 L 3.875 -8.40625 L 5.546875 -8.40625 L 5.546875 -5.203125 L 8.734375 -5.203125 L 8.734375 -3.765625 L 5.546875 -3.765625 L 5.546875 -0.671875 L 3.875 -0.671875 L 3.875 -3.765625 Z M 0.71875 -3.765625 "/></g></g></g><g fill="#461b6a" fill-opacity="1"><g transform="translate(200.591159, 91.672636)"><g/></g></g><g fill="#461b6a" fill-opacity="1"><g transform="translate(205.070079, 91.672636)"><g><path d="M 8.953125 0 L 7.90625 -2.78125 L 3.21875 -2.78125 L 2.15625 0 L 0.40625 0 L 4.734375 -11.203125 L 6.5 -11.203125 L 10.796875 0 Z M 4.703125 -6.6875 L 3.859375 -4.453125 L 7.28125 -4.453125 L 6.40625 -6.75 C 6.257812 -7.125 6.117188 -7.523438 5.984375 -7.953125 C 5.847656 -8.390625 5.707031 -8.828125 5.5625 -9.265625 C 5.414062 -8.816406 5.269531 -8.367188 5.125 -7.921875 C 4.976562 -7.472656 4.835938 -7.0625 4.703125 -6.6875 Z M 4.703125 -6.6875 "/></g></g></g><g fill="#461b6a" fill-opacity="1"><g transform="translate(216.26739, 91.672636)"><g><path d="M 5.546875 -8.578125 C 6.304688 -8.578125 6.894531 -8.421875 7.3125 -8.109375 C 7.726562 -7.796875 8.019531 -7.378906 8.1875 -6.859375 C 8.351562 -6.335938 8.4375 -5.757812 8.4375 -5.125 L 8.4375 0 L 6.78125 0 L 6.78125 -5.015625 C 6.78125 -5.410156 6.726562 -5.769531 6.625 -6.09375 C 6.519531 -6.414062 6.335938 -6.664062 6.078125 -6.84375 C 5.828125 -7.03125 5.472656 -7.109375 5.015625 -7.078125 C 4.585938 -7.078125 4.207031 -6.984375 3.875 -6.796875 C 3.539062 -6.617188 3.273438 -6.378906 3.078125 -6.078125 C 2.890625 -5.773438 2.796875 -5.445312 2.796875 -5.09375 L 2.796875 0 L 1.15625 0 L 1.15625 -8.40625 L 2.796875 -8.40625 L 2.796875 -7.078125 C 3.054688 -7.460938 3.429688 -7.804688 3.921875 -8.109375 C 4.410156 -8.421875 4.953125 -8.578125 5.546875 -8.578125 Z M 5.546875 -8.578125 "/></g></g></g><g fill="#461b6a" fill-opacity="1"><g transform="translate(225.785108, 91.672636)"><g><path d="M 8.96875 -8.40625 L 8.96875 0 L 7.3125 0 L 7.3125 -1.296875 C 7.050781 -0.941406 6.671875 -0.609375 6.171875 -0.296875 C 5.671875 0.00390625 5.09375 0.15625 4.4375 0.15625 C 3.726562 0.15625 3.082031 -0.0234375 2.5 -0.390625 C 1.914062 -0.765625 1.453125 -1.28125 1.109375 -1.9375 C 0.773438 -2.601562 0.609375 -3.363281 0.609375 -4.21875 C 0.609375 -5.070312 0.78125 -5.828125 1.125 -6.484375 C 1.476562 -7.140625 1.960938 -7.648438 2.578125 -8.015625 C 3.203125 -8.390625 3.910156 -8.578125 4.703125 -8.578125 C 5.285156 -8.578125 5.796875 -8.445312 6.234375 -8.1875 C 6.679688 -7.9375 7.039062 -7.640625 7.3125 -7.296875 L 7.3125 -8.40625 Z M 4.8125 -1.359375 C 5.320312 -1.359375 5.769531 -1.484375 6.15625 -1.734375 C 6.539062 -1.984375 6.835938 -2.320312 7.046875 -2.75 C 7.265625 -3.1875 7.375 -3.675781 7.375 -4.21875 C 7.375 -4.757812 7.265625 -5.238281 7.046875 -5.65625 C 6.835938 -6.082031 6.539062 -6.421875 6.15625 -6.671875 C 5.769531 -6.929688 5.320312 -7.0625 4.8125 -7.0625 C 4.320312 -7.0625 3.882812 -6.9375 3.5 -6.6875 C 3.113281 -6.4375 2.8125 -6.097656 2.59375 -5.671875 C 2.382812 -5.253906 2.28125 -4.769531 2.28125 -4.21875 C 2.28125 -3.675781 2.382812 -3.1875 2.59375 -2.75 C 2.8125 -2.320312 3.113281 -1.984375 3.5 -1.734375 C 3.882812 -1.484375 4.320312 -1.359375 4.8125 -1.359375 Z M 4.8125 -1.359375 "/></g></g></g><g fill="#461b6a" fill-opacity="1"><g transform="translate(235.91068, 91.672636)"><g><path d="M 1.15625 0 L 1.15625 -11.84375 L 2.796875 -11.84375 L 2.796875 0 Z M 1.15625 0 "/></g></g></g><g fill="#461b6a" fill-opacity="1"><g transform="translate(239.669755, 91.672636)"><g><path d="M 2.5625 3.6875 L 3.9375 0.53125 L 3.984375 0.421875 L 0.078125 -8.40625 L 2 -8.40625 L 4.625 -2.21875 C 4.65625 -2.15625 4.6875 -2.078125 4.71875 -1.984375 C 4.75 -1.890625 4.785156 -1.78125 4.828125 -1.65625 C 4.867188 -1.78125 4.910156 -1.894531 4.953125 -2 C 4.992188 -2.113281 5.035156 -2.226562 5.078125 -2.34375 L 7.265625 -8.40625 L 9.21875 -8.40625 L 5.765625 0 L 4.34375 3.6875 Z M 2.5625 3.6875 "/></g></g></g><g fill="#461b6a" fill-opacity="1"><g transform="translate(248.963524, 91.672636)"><g><path d="M 3.84375 0 L 2.1875 0 L 2.1875 -6.796875 L 0.453125 -6.796875 L 0.453125 -8.40625 L 2.1875 -8.40625 L 2.1875 -10.546875 L 3.84375 -10.546875 L 3.84375 -8.40625 L 5.796875 -8.40625 L 5.796875 -6.796875 L 3.84375 -6.796875 Z M 3.84375 0 "/></g></g></g><g fill="#461b6a" fill-opacity="1"><g transform="translate(255.106049, 91.672636)"><g><path d="M 2.265625 -10.21875 C 1.890625 -10.21875 1.609375 -10.3125 1.421875 -10.5 C 1.242188 -10.695312 1.15625 -10.953125 1.15625 -11.265625 C 1.15625 -11.523438 1.242188 -11.757812 1.421875 -11.96875 C 1.609375 -12.1875 1.890625 -12.296875 2.265625 -12.296875 C 2.628906 -12.296875 2.898438 -12.195312 3.078125 -12 C 3.265625 -11.8125 3.359375 -11.566406 3.359375 -11.265625 C 3.359375 -10.992188 3.265625 -10.75 3.078125 -10.53125 C 2.898438 -10.320312 2.628906 -10.21875 2.265625 -10.21875 Z M 3.09375 0 L 1.453125 0 L 1.453125 -8.40625 L 3.09375 -8.40625 Z M 3.09375 0 "/></g></g></g><g fill="#461b6a" fill-opacity="1"><g transform="translate(259.552982, 91.672636)"><g><path d="M 2.203125 -4.203125 C 2.203125 -3.648438 2.328125 -3.15625 2.578125 -2.71875 C 2.828125 -2.289062 3.15625 -1.953125 3.5625 -1.703125 C 3.976562 -1.453125 4.421875 -1.328125 4.890625 -1.328125 C 5.429688 -1.328125 5.894531 -1.460938 6.28125 -1.734375 C 6.675781 -2.015625 7 -2.304688 7.25 -2.609375 L 8.15625 -1.484375 C 7.957031 -1.203125 7.679688 -0.929688 7.328125 -0.671875 C 6.972656 -0.421875 6.570312 -0.21875 6.125 -0.0625 C 5.675781 0.0820312 5.207031 0.15625 4.71875 0.15625 C 3.945312 0.15625 3.253906 -0.03125 2.640625 -0.40625 C 2.023438 -0.789062 1.535156 -1.3125 1.171875 -1.96875 C 0.816406 -2.632812 0.640625 -3.378906 0.640625 -4.203125 C 0.640625 -5.035156 0.816406 -5.78125 1.171875 -6.4375 C 1.535156 -7.09375 2.023438 -7.613281 2.640625 -8 C 3.253906 -8.382812 3.945312 -8.578125 4.71875 -8.578125 C 5.5 -8.578125 6.191406 -8.414062 6.796875 -8.09375 C 7.410156 -7.78125 7.863281 -7.375 8.15625 -6.875 L 7.25 -5.765625 C 7 -6.117188 6.644531 -6.425781 6.1875 -6.6875 C 5.738281 -6.957031 5.300781 -7.09375 4.875 -7.09375 C 4.375 -7.09375 3.921875 -6.96875 3.515625 -6.71875 C 3.109375 -6.46875 2.785156 -6.125 2.546875 -5.6875 C 2.316406 -5.257812 2.203125 -4.765625 2.203125 -4.203125 Z M 2.203125 -4.203125 "/></g></g></g><g fill="#461b6a" fill-opacity="1"><g transform="translate(268.110931, 91.672636)"><g><path d="M 6 -6.1875 C 5.695312 -6.488281 5.359375 -6.734375 4.984375 -6.921875 C 4.609375 -7.117188 4.257812 -7.21875 3.9375 -7.21875 C 3.707031 -7.21875 3.484375 -7.191406 3.265625 -7.140625 C 3.046875 -7.085938 2.863281 -6.988281 2.71875 -6.84375 C 2.570312 -6.695312 2.5 -6.484375 2.5 -6.203125 C 2.507812 -5.816406 2.679688 -5.546875 3.015625 -5.390625 C 3.347656 -5.234375 3.765625 -5.085938 4.265625 -4.953125 C 4.703125 -4.835938 5.128906 -4.691406 5.546875 -4.515625 C 5.960938 -4.335938 6.304688 -4.082031 6.578125 -3.75 C 6.847656 -3.414062 6.984375 -2.945312 6.984375 -2.34375 C 6.984375 -1.8125 6.835938 -1.359375 6.546875 -0.984375 C 6.253906 -0.617188 5.875 -0.335938 5.40625 -0.140625 C 4.945312 0.0546875 4.460938 0.15625 3.953125 0.15625 C 3.347656 0.15625 2.75 0.046875 2.15625 -0.171875 C 1.5625 -0.390625 1.054688 -0.765625 0.640625 -1.296875 L 1.765625 -2.25 C 2.046875 -1.925781 2.367188 -1.671875 2.734375 -1.484375 C 3.109375 -1.296875 3.5625 -1.203125 4.09375 -1.203125 C 4.300781 -1.203125 4.503906 -1.234375 4.703125 -1.296875 C 4.910156 -1.367188 5.082031 -1.484375 5.21875 -1.640625 C 5.363281 -1.796875 5.4375 -2.003906 5.4375 -2.265625 C 5.4375 -2.523438 5.359375 -2.726562 5.203125 -2.875 C 5.046875 -3.019531 4.835938 -3.132812 4.578125 -3.21875 C 4.328125 -3.3125 4.050781 -3.394531 3.75 -3.46875 C 3.289062 -3.59375 2.835938 -3.75 2.390625 -3.9375 C 1.953125 -4.125 1.582031 -4.390625 1.28125 -4.734375 C 0.988281 -5.085938 0.84375 -5.5625 0.84375 -6.15625 C 0.84375 -6.65625 0.984375 -7.082031 1.265625 -7.4375 C 1.554688 -7.800781 1.929688 -8.082031 2.390625 -8.28125 C 2.847656 -8.476562 3.335938 -8.578125 3.859375 -8.578125 C 4.359375 -8.578125 4.898438 -8.46875 5.484375 -8.25 C 6.078125 -8.039062 6.5625 -7.703125 6.9375 -7.234375 Z M 6 -6.1875 "/></g></g></g></svg>